<svg width="35" height="35" viewBox="0 0 35 35" fill="none" xmlns="http://www.w3.org/2000/svg">
<path d="M33.3342 16H18.6675V1.33333C18.6675 0.979711 18.5271 0.640573 18.277 0.390525C18.027 0.140476 17.6878 0 17.3342 0C16.9806 0 16.6414 0.140476 16.3914 0.390525C16.1413 0.640573 16.0009 0.979711 16.0009 1.33333V16H1.33421C0.980585 16 0.641447 16.1405 0.391398 16.3905C0.14135 16.6406 0.000873709 16.9797 0.000873709 17.3333C-0.00570579 17.5066 0.0249361 17.6793 0.090734 17.8397C0.156532 18.0002 0.255957 18.1447 0.382309 18.2634C0.508661 18.3822 0.659005 18.4725 0.823208 18.5283C0.987411 18.584 1.16166 18.6039 1.33421 18.5867H16.0009V33.3333C16.0009 33.687 16.1413 34.0261 16.3914 34.2761C16.6414 34.5262 16.9806 34.6667 17.3342 34.6667C17.6878 34.6667 18.027 34.5262 18.277 34.2761C18.5271 34.0261 18.6675 33.687 18.6675 33.3333V18.6667H33.3342C33.6878 18.6667 34.027 18.5262 34.277 18.2761C34.5271 18.0261 34.6675 17.687 34.6675 17.3333C34.6675 16.9797 34.5271 16.6406 34.277 16.3905C34.027 16.1405 33.6878 16 33.3342 16Z" fill="white"/>
</svg>
